<svg width="48" height="38" viewBox="0 0 48 38" fill="none" xmlns="http://www.w3.org/2000/svg">
<path d="M5.33801 3.76682L5.33816 3.73495C5.33411 4.37093 4.81119 4.93187 4.16672 4.98967C3.51974 5.0477 2.99525 4.57669 2.99525 3.93765L2.99526 3.9353C2.99865 2.76796 3.58137 1.57029 4.56021 0.917728C5.1304 0.537601 5.81906 0.33741 6.60598 0.337402H31.4224C33.1511 0.337402 34.5728 1.27293 35.2526 2.66112C36.8771 2.66403 38.0502 2.70554 39.0553 3.1781C39.3827 3.33198 39.6913 3.51826 39.9771 3.73436C40.9404 4.4628 41.4953 5.58643 42.2955 7.20669C42.8935 8.41745 43.4921 9.6279 44.0908 10.8383H39.9507C38.662 10.8383 37.514 11.8778 37.3864 13.1601L36.6936 20.1258C36.5023 22.0493 37.9142 23.6086 39.8472 23.6086H46.8003L46.4858 27.0599C46.1519 30.7212 43.0439 33.7232 39.4151 34.0087C39.5577 31.8295 37.9325 30.0854 35.7244 30.0854C33.5088 30.0854 31.5307 31.8413 31.2503 34.031H19.1064C19.2616 31.8413 17.6328 30.0854 15.4172 30.0854C13.2016 30.0854 11.2235 31.8413 10.9431 34.031H8.51682C4.0065 34.031 0.682177 30.3897 1.09174 25.898L1.30938 23.5111C1.35421 23.0184 1.39778 22.5396 1.4871 22.1447C1.58781 21.6994 1.78058 21.1914 2.24281 20.7694C2.70504 20.3474 3.22849 20.2015 3.68102 20.1417C4.08241 20.0886 4.56318 20.0887 5.05789 20.0888L29.6214 20.0888C30.9101 20.0888 32.0496 19.0484 32.1667 17.7651L33.332 4.98479C33.4507 3.68354 32.4948 2.6611 31.2106 2.6611H6.39412C5.76555 2.6611 5.38277 3.10788 5.3398 3.70947C5.33895 3.72566 5.33844 3.74853 5.33819 3.75987L5.33801 3.76682Z" fill="white"/>
<path d="M38.2463 34.031H32.4176C32.6337 32.4826 34.0377 31.2463 35.6089 31.2463C37.1801 31.2463 38.3382 32.4826 38.2463 34.031Z" fill="white"/>
<path d="M15.3017 31.2463C16.8729 31.2463 18.031 32.4826 17.9391 34.031H12.1105C12.3266 32.4826 13.7305 31.2463 15.3017 31.2463Z" fill="white"/>
<path d="M47.012 21.2867L47.1173 20.1342C47.2189 19.0237 47.2895 18.2523 47.1548 17.5054C47.0201 16.7582 46.6905 16.0923 46.2154 15.1326L45.2396 13.1601H39.7197L39.0269 20.1258C38.9632 20.7669 39.4338 21.2867 40.0781 21.2867H47.012Z" fill="white"/>
<path d="M12.0965 34.1487C12.2559 32.5458 13.691 31.2463 15.3018 31.2463C16.9127 31.2463 18.0893 32.5458 17.9298 34.1487C17.7704 35.7516 16.3353 37.051 14.7245 37.051C13.1137 37.051 11.9371 35.7516 12.0965 34.1487Z" fill="white"/>
<path d="M32.4036 34.1487C32.5631 32.5458 33.9981 31.2463 35.609 31.2463C37.2198 31.2463 38.3964 32.5458 38.237 34.1487C38.0775 35.7516 36.6425 37.051 35.0316 37.051C33.4208 37.051 32.2442 35.7516 32.4036 34.1487Z" fill="white"/>
<path fill-rule="evenodd" clip-rule="evenodd" d="M0.666504 16.6659C0.666504 16.0216 1.18884 15.4993 1.83317 15.4993H6.49984C7.14417 15.4993 7.6665 16.0216 7.6665 16.6659C7.6665 17.3103 7.14417 17.8326 6.49984 17.8326H1.83317C1.18884 17.8326 0.666504 17.3103 0.666504 16.6659Z" fill="white"/>
<path fill-rule="evenodd" clip-rule="evenodd" d="M0.666504 11.9992C0.666504 11.3549 1.18884 10.8325 1.83317 10.8325H8.83317C9.4775 10.8325 9.99984 11.3549 9.99984 11.9992C9.99984 12.6435 9.4775 13.1659 8.83317 13.1659H1.83317C1.18884 13.1659 0.666504 12.6435 0.666504 11.9992Z" fill="white"/>
<path fill-rule="evenodd" clip-rule="evenodd" d="M0.666504 7.33256C0.666504 6.68823 1.18884 6.16589 1.83317 6.16589H11.1665C11.8108 6.16589 12.3332 6.68823 12.3332 7.33256C12.3332 7.97689 11.8108 8.49923 11.1665 8.49923H1.83317C1.18884 8.49923 0.666504 7.97689 0.666504 7.33256Z" fill="white"/>
</svg>
