<svg width="20" height="20" viewBox="0 0 20 20" fill="none" xmlns="http://www.w3.org/2000/svg">
<path d="M1.25 2.5H2.70833L3.33333 5M3.33333 5L5.41667 13.3333H16.25L18.3333 5H3.33333Z" stroke="white" stroke-width="1.5" stroke-linecap="round" stroke-linejoin="round"/>
<path d="M5.4165 17.5C6.10686 17.5 6.6665 16.9404 6.6665 16.25C6.6665 15.5596 6.10686 15 5.4165 15C4.72615 15 4.1665 15.5596 4.1665 16.25C4.1665 16.9404 4.72615 17.5 5.4165 17.5Z" stroke="white" stroke-width="1.5" stroke-linecap="round" stroke-linejoin="round"/>
<path d="M16.25 17.5C16.9404 17.5 17.5 16.9404 17.5 16.25C17.5 15.5596 16.9404 15 16.25 15C15.5596 15 15 15.5596 15 16.25C15 16.9404 15.5596 17.5 16.25 17.5Z" stroke="white" stroke-width="1.5" stroke-linecap="round" stroke-linejoin="round"/>
</svg>
