<svg width="30" height="43" viewBox="0 0 30 43" fill="none" xmlns="http://www.w3.org/2000/svg">
<path fill-rule="evenodd" clip-rule="evenodd" d="M8.0318 0.283024L7.9424 0.282816C7.63143 0.281743 7.24956 0.280425 6.90711 0.385302C6.16617 0.612212 5.58621 1.19216 5.3593 1.9331C5.25443 2.27556 5.25574 2.65743 5.25682 2.9684L5.25703 3.0578L5.25682 3.1472C5.25631 3.29348 5.25575 3.45545 5.26622 3.62163C5.22354 3.6268 5.18131 3.63219 5.13952 3.63781C4.05705 3.78334 3.10105 4.10064 2.33559 4.8661C1.57013 5.63156 1.25284 6.58755 1.1073 7.67002C0.968684 8.70104 0.968715 10.0038 0.968751 11.5835V35.0598C0.968733 36.2334 0.968719 37.2019 1.04802 37.9837C1.13064 38.7983 1.30885 39.5384 1.75065 40.2022C2.0933 40.717 2.53485 41.1585 3.04963 41.5011C3.71338 41.943 4.45346 42.1212 5.2681 42.2038C6.0499 42.2831 7.01825 42.2831 8.19184 42.283H20.9475C22.5273 42.2831 23.83 42.2831 24.8611 42.1445C25.9435 41.999 26.8995 41.6817 27.665 40.9162C28.4304 40.1507 28.7477 39.1948 28.8933 38.1123C29.0319 37.0812 29.0319 35.7785 29.0318 34.1987V11.5836C29.0319 10.0038 29.0319 8.70106 28.8933 7.67002C28.7477 6.58755 28.4304 5.63156 27.665 4.8661C26.8995 4.10064 25.9435 3.78334 24.8611 3.63781C24.8193 3.63219 24.777 3.6268 24.7343 3.62162C24.7448 3.45546 24.7442 3.2935 24.7437 3.14722L24.7435 3.0578L24.7437 2.9684C24.7448 2.65743 24.7461 2.27555 24.6412 1.9331C24.4143 1.19216 23.8344 0.612212 23.0934 0.385302C22.751 0.280425 22.3691 0.281743 22.0581 0.282816L21.9687 0.283024H8.0318ZM3.98551 6.51601C4.24517 6.25635 4.6267 6.06108 5.45043 5.95033C6.30772 5.83507 7.45253 5.83259 9.13542 5.83259H20.8652C22.5481 5.83259 23.6929 5.83507 24.5501 5.95033C25.3739 6.06108 25.7554 6.25635 26.0151 6.51601C26.2747 6.77568 26.47 7.1572 26.5807 7.98093C26.696 8.83822 26.6985 9.98303 26.6985 11.6659V12.8326H3.30209V11.6659C3.30209 9.98303 3.30457 8.83822 3.41983 7.98093C3.53058 7.1572 3.72584 6.77568 3.98551 6.51601ZM3.30525 36.1659H26.6852C26.671 36.8158 26.6416 37.3487 26.5807 37.8014C26.47 38.6251 26.2747 39.0066 26.0151 39.2663C25.7554 39.526 25.3739 39.7212 24.5501 39.832C23.6929 39.9472 22.548 39.9497 20.8652 39.9497H8.25253C7.00318 39.9497 6.15372 39.9483 5.50355 39.8824C4.87279 39.8184 4.55979 39.7034 4.34253 39.5588C4.08514 39.3874 3.86436 39.1667 3.69304 38.9093C3.54842 38.692 3.43342 38.379 3.36944 37.7482C3.32642 37.3242 3.31087 36.8153 3.30525 36.1659ZM12.8127 20.8534C12.8127 20.1739 12.8127 19.8342 12.9237 19.5662C13.0717 19.2088 13.3556 18.9249 13.713 18.7769C13.981 18.6659 14.3207 18.6659 15.0002 18.6659C15.6797 18.6659 16.0195 18.6659 16.2875 18.7769C16.6448 18.9249 16.9287 19.2088 17.0767 19.5662C17.1877 19.8342 17.1877 20.1739 17.1877 20.8534V22.2418C17.1877 22.2748 17.1877 22.2913 17.198 22.3015C17.2082 22.3118 17.2247 22.3118 17.2577 22.3118H18.6461C19.3256 22.3118 19.6653 22.3118 19.9333 22.4228C20.2906 22.5708 20.5745 22.8547 20.7226 23.212C20.8336 23.48 20.8336 23.8198 20.8336 24.4993C20.8336 25.1788 20.8336 25.5185 20.7226 25.7865C20.5745 26.1438 20.2906 26.4277 19.9333 26.5757C19.6653 26.6868 19.3256 26.6868 18.6461 26.6868H17.2577C17.2247 26.6868 17.2082 26.6868 17.198 26.697C17.1877 26.7073 17.1877 26.7238 17.1877 26.7568V28.1451C17.1877 28.8246 17.1877 29.1643 17.0767 29.4323C16.9287 29.7897 16.6448 30.0736 16.2875 30.2216C16.0195 30.3326 15.6797 30.3326 15.0002 30.3326C14.3207 30.3326 13.981 30.3326 13.713 30.2216C13.3556 30.0736 13.0717 29.7897 12.9237 29.4323C12.8127 29.1643 12.8127 28.8246 12.8127 28.1451V26.7568C12.8127 26.7238 12.8127 26.7073 12.8025 26.697C12.7922 26.6868 12.7757 26.6868 12.7427 26.6868H11.3544C10.6749 26.6868 10.3351 26.6868 10.0671 26.5757C9.70981 26.4277 9.42591 26.1438 9.2779 25.7865C9.16689 25.5185 9.16689 25.1788 9.16689 24.4993C9.16689 23.8198 9.16689 23.48 9.2779 23.212C9.42591 22.8547 9.70981 22.5708 10.0671 22.4228C10.3351 22.3118 10.6749 22.3118 11.3544 22.3118H12.7427C12.7757 22.3118 12.7922 22.3118 12.8025 22.3015C12.8127 22.2913 12.8127 22.2748 12.8127 22.2418V20.8534Z" fill="white"/>
</svg>
