<svg width="42" height="42" viewBox="0 0 42 42" fill="none" xmlns="http://www.w3.org/2000/svg">
<path fill-rule="evenodd" clip-rule="evenodd" d="M9.33035 0.818071C10.4209 0.193598 11.7114 0.230167 12.7639 0.743611C17.9177 3.25779 24.0894 3.26041 29.2454 0.750659C30.3097 0.232561 31.6161 0.202378 32.7118 0.845868L40.8 5.59611C41.5343 6.03937 41.9967 6.85159 41.9995 7.71109L41.9995 7.71455C42.0033 21.6075 34.3694 34.7213 22.3395 41.6416C21.5185 42.1134 20.4811 42.1137 19.6601 41.6418C7.59195 34.6996 -0.0488458 21.5262 -0.000257915 7.58937C0.00252016 6.72986 0.465018 5.91772 1.19929 5.47445L1.22235 5.46053L9.33035 0.818071ZM17.9373 13.5617C17.9373 12.6104 17.9373 12.1348 18.0927 11.7596C18.2999 11.2593 18.6974 10.8619 19.1977 10.6547C19.5729 10.4992 20.0485 10.4992 20.9998 10.4992C21.9511 10.4992 22.4267 10.4992 22.8019 10.6547C23.3022 10.8619 23.6997 11.2593 23.9069 11.7596C24.0623 12.1348 24.0623 12.6104 24.0623 13.5617V15.5054C24.0623 15.5516 24.0623 15.5747 24.0767 15.5891C24.091 15.6034 24.1141 15.6034 24.1603 15.6034H26.104C27.0553 15.6034 27.5309 15.6034 27.9061 15.7588C28.4064 15.966 28.8038 16.3635 29.0111 16.8638C29.1665 17.239 29.1665 17.7146 29.1665 18.6659C29.1665 19.6172 29.1665 20.0929 29.0111 20.4681C28.8038 20.9683 28.4064 21.3658 27.9061 21.573C27.5309 21.7284 27.0553 21.7284 26.104 21.7284H24.1603C24.1141 21.7284 24.091 21.7284 24.0767 21.7428C24.0623 21.7571 24.0623 21.7802 24.0623 21.8264V23.7701C24.0623 24.7214 24.0623 25.197 23.9069 25.5722C23.6997 26.0725 23.3022 26.4699 22.8019 26.6772C22.4267 26.8326 21.9511 26.8326 20.9998 26.8326C20.0485 26.8326 19.5729 26.8326 19.1977 26.6772C18.6974 26.4699 18.2999 26.0725 18.0927 25.5722C17.9373 25.197 17.9373 24.7214 17.9373 23.7701V21.8264C17.9373 21.7802 17.9373 21.7571 17.9229 21.7428C17.9086 21.7284 17.8855 21.7284 17.8393 21.7284H15.8956C14.9443 21.7284 14.4687 21.7284 14.0935 21.573C13.5932 21.3658 13.1958 20.9683 12.9885 20.4681C12.8331 20.0929 12.8331 19.6172 12.8331 18.6659C12.8331 17.7146 12.8331 17.239 12.9885 16.8638C13.1958 16.3635 13.5932 15.966 14.0935 15.7588C14.4687 15.6034 14.9443 15.6034 15.8956 15.6034H17.8393C17.8855 15.6034 17.9086 15.6034 17.9229 15.5891C17.9373 15.5747 17.9373 15.5516 17.9373 15.5054V13.5617Z" fill="white"/>
</svg>
