<svg width="32" height="46" viewBox="0 0 32 46" fill="none" xmlns="http://www.w3.org/2000/svg">
<path d="M6.5 37.9993C3.6005 37.9993 1.25 40.3498 1.25 43.2493C1.25 44.4919 2.25736 45.4993 3.5 45.4993H26.5C27.7426 45.4993 28.75 44.4919 28.75 43.2493C28.75 40.3498 26.3995 37.9993 23.5 37.9993H6.5Z" fill="white"/>
<path fill-rule="evenodd" clip-rule="evenodd" d="M30.2815 1.54786C29.2415 0.190416 27.2532 -0.246379 25.751 0.846825C25.5898 0.964134 25.4419 1.09996 25.3102 1.2504C25.0358 1.0327 24.7221 0.849275 24.3487 0.736406C24.0123 0.634739 23.6617 0.588298 23.3104 0.598891C22.6834 0.617801 22.1581 0.853036 21.6916 1.13686C21.2577 1.40085 20.769 1.77524 20.2201 2.19587L7.62267 11.8465C7.35415 12.0517 7.09897 12.2468 6.90018 12.4652C6.03728 13.4134 5.8167 14.7738 6.31895 15.9386L4.64654 17.2209C4.36972 17.433 4.11756 17.6262 3.91619 17.8017C3.70061 17.9897 3.47899 18.2111 3.30071 18.5001C2.85182 19.2277 2.73473 20.1123 2.97885 20.9317C3.0758 21.2572 3.2322 21.5286 3.39145 21.7661C3.54021 21.988 3.73338 22.2401 3.94548 22.5169L3.98696 22.571C4.19903 22.8478 4.39223 23.1 4.56778 23.3014C4.75573 23.517 4.9771 23.7386 5.26609 23.9169C5.99376 24.3657 6.87838 24.4828 7.69778 24.2387C8.0232 24.1418 8.29461 23.9854 8.53217 23.8261C8.75408 23.6774 9.00618 23.4842 9.28297 23.2721L11.1069 21.8756C12.0474 22.3428 13.2117 22.2685 14.1016 21.5868L20.4306 16.7383C21.1314 17.3607 22.0093 17.79 22.9797 17.9402C23.3905 18.5882 23.7226 19.2866 23.9665 20.021C24.4893 21.595 24.5886 23.2788 24.2544 24.9033C23.9201 26.5278 23.1642 28.0357 22.0624 29.2754C20.9607 30.5152 19.5521 31.4431 17.9781 31.9659C16.4041 32.4887 14.7203 32.5879 13.0958 32.2537C12.6919 32.1706 12.1807 31.9652 11.6279 31.6911C12.1335 31.5309 12.5 31.0579 12.5 30.4992C12.5 29.8089 11.9404 29.2492 11.25 29.2492H1.25C0.559644 29.2492 0 29.8089 0 30.4992C0 31.1896 0.559644 31.7492 1.25 31.7492H1.3635C1.55168 32.0103 1.79849 32.3469 2.07666 32.7116C2.68065 33.5034 3.50197 34.5208 4.2055 35.146C6.3377 37.0408 8.93111 38.341 11.7251 38.9158C14.519 39.4907 17.415 39.3199 20.1221 38.4208C22.8291 37.5217 25.2518 35.9258 27.1466 33.7936C29.0415 31.6614 30.3416 29.068 30.9165 26.274C31.4913 23.4801 31.3206 20.584 30.4215 17.877C29.9815 16.5524 29.3747 15.2958 28.6199 14.1359C28.705 13.77 28.7499 13.3893 28.7499 12.9992C28.7499 12.1966 28.5602 11.4372 28.2237 10.7646C28.3865 10.6361 28.5352 10.5145 28.6657 10.3987C28.9367 10.1584 29.2025 9.8813 29.4016 9.51937C29.7782 8.83457 29.8949 8.03802 29.7324 7.27574C29.9647 7.17691 30.1834 7.04649 30.3794 6.88851C31.826 5.72277 31.9219 3.68923 30.882 2.33177L30.2815 1.54786ZM4.4959 31.7492C4.98163 32.3587 5.47978 32.9339 5.86617 33.2772C7.67035 34.8805 9.86477 35.9807 12.2289 36.4671C14.593 36.9535 17.0435 36.8091 19.3341 36.0482C21.6246 35.2874 23.6746 33.9371 25.2779 32.1329C26.8812 30.3287 27.9814 28.1343 28.4678 25.7702C28.9542 23.4061 28.8097 20.9556 28.0489 18.665C27.8155 17.9624 27.5267 17.2824 27.1863 16.6309C26.7479 17.046 26.2343 17.3826 25.6679 17.6181C25.9299 18.1375 26.1545 18.677 26.3391 19.2329C27.0002 21.2234 27.1257 23.3528 26.7031 25.4071C26.2804 27.4615 25.3244 29.3684 23.9312 30.9361C22.538 32.5039 20.7566 33.6773 18.7661 34.3384C16.7757 34.9995 14.6463 35.1251 12.592 34.7024C11.3156 34.4398 9.77595 33.5776 8.67278 32.8902C8.09422 32.5297 7.58474 32.1842 7.2201 31.9291C7.12531 31.8628 7.04004 31.8024 6.9656 31.7492H4.4959ZM6.1944 19.1844L7.7611 17.9832L9.35719 20.0666L7.78952 21.2669C7.47693 21.5064 7.28822 21.6503 7.14011 21.7495C7.03597 21.8193 6.99111 21.8396 6.98189 21.8434C6.8466 21.8831 6.70083 21.8638 6.58052 21.7903C6.5726 21.7843 6.53457 21.753 6.45216 21.6585C6.33498 21.5241 6.1902 21.3361 5.95069 21.0235C5.71118 20.7109 5.56732 20.5222 5.46803 20.3741C5.39825 20.27 5.37795 20.2251 5.37417 20.2159C5.33449 20.0806 5.35378 19.9348 5.42729 19.8145C5.43333 19.8065 5.4646 19.7685 5.55908 19.6861C5.69349 19.569 5.88182 19.4239 6.1944 19.1844ZM27.2221 2.86819C27.5308 2.64354 28.0076 2.69055 28.2969 3.06821L28.8974 3.85212C29.1867 4.22978 29.108 4.70236 28.8107 4.94192C28.7582 4.98422 28.7172 4.99312 28.7006 4.99485L28.6916 4.98413L27.1503 2.9722L27.1459 2.96607C27.1498 2.95039 27.1672 2.90814 27.2221 2.86819ZM21.2499 12.9992C21.2499 11.6185 22.3692 10.4992 23.7499 10.4992C24.4865 10.4992 25.1473 10.8161 25.6066 11.325C26.0074 11.7691 26.2499 12.3543 26.2499 12.9992C26.2499 13.3284 26.1869 13.6398 26.0735 13.9243C25.7048 14.8492 24.8018 15.4992 23.7499 15.4992C22.8706 15.4992 22.0964 15.0462 21.6489 14.3549C21.3966 13.965 21.2499 13.5011 21.2499 12.9992Z" fill="white"/>
</svg>
