<svg width="31" height="31" viewBox="0 0 31 31" fill="none" xmlns="http://www.w3.org/2000/svg">
<path d="M16.0752 23.9189L19.7509 20.6348C20.1122 20.3119 20.6531 20.2946 21.0343 20.5937L25.9 24.4107C26.3898 24.795 26.4132 25.5285 25.949 25.9432L24.8134 26.9579C24.0644 27.6271 23.0313 27.8766 22.088 27.5315C19.5948 26.6192 14.524 24.3465 10.5093 19.8532C6.4947 15.3599 4.80507 10.0661 4.17823 7.48631C3.94106 6.51025 4.30489 5.51167 5.05393 4.84243L6.18955 3.82779C6.65375 3.41304 7.38001 3.51865 7.70687 4.04842L10.9541 9.31151C11.2085 9.72392 11.1306 10.2594 10.7693 10.5823L7.09359 13.8664" stroke="#57A3FC" stroke-width="2" stroke-linecap="round"/>
</svg>
