<svg width="32" height="42" viewBox="0 0 32 42" fill="none" xmlns="http://www.w3.org/2000/svg">
<path fill-rule="evenodd" clip-rule="evenodd" d="M6.59004 -0.00072997H25.4103C26.4445 -0.00078259 27.3357 -0.000827925 28.0493 0.0951089C28.814 0.197929 29.5471 0.429799 30.1417 1.0244C30.7363 1.61901 30.9682 2.35209 31.071 3.11685C31.167 3.83046 31.1669 4.72159 31.1668 5.75584V36.2427C31.1669 37.277 31.167 38.1681 31.071 38.8817C30.9682 39.6465 30.7363 40.3795 30.1417 40.9741C29.5471 41.5687 28.814 41.8006 28.0493 41.9034C27.3357 41.9994 26.4446 41.9993 25.4105 41.9993H6.59C5.55583 41.9993 4.66465 41.9994 3.95108 41.9034C3.18631 41.8006 2.45324 41.5687 1.85863 40.9741C1.26403 40.3795 1.03216 39.6465 0.929337 38.8817C0.8334 38.1681 0.833446 37.2771 0.833499 36.2429V5.75581C0.833446 4.72163 0.8334 3.83043 0.929337 3.11685C1.03216 2.35209 1.26403 1.61901 1.85863 1.0244C2.45324 0.429799 3.18631 0.197929 3.95108 0.0951089C4.66465 -0.000827925 5.55587 -0.00078259 6.59004 -0.00072997ZM9.00017 11.6659C10.2888 11.6659 11.3335 10.6213 11.3335 9.33261C11.3335 8.04394 10.2888 6.99927 9.00017 6.99927C7.7115 6.99927 6.66683 8.04394 6.66683 9.33261C6.66683 10.6213 7.7115 11.6659 9.00017 11.6659ZM25.3335 9.33261C25.3335 10.6213 24.2888 11.6659 23.0002 11.6659C21.7115 11.6659 20.6668 10.6213 20.6668 9.33261C20.6668 8.04394 21.7115 6.99927 23.0002 6.99927C24.2888 6.99927 25.3335 8.04394 25.3335 9.33261ZM9.00017 23.3326C10.2888 23.3326 11.3335 22.2879 11.3335 20.9993C11.3335 19.7106 10.2888 18.6659 9.00017 18.6659C7.7115 18.6659 6.66683 19.7106 6.66683 20.9993C6.66683 22.2879 7.7115 23.3326 9.00017 23.3326ZM25.3335 20.9993C25.3335 22.2879 24.2888 23.3326 23.0002 23.3326C21.7115 23.3326 20.6668 22.2879 20.6668 20.9993C20.6668 19.7106 21.7115 18.6659 23.0002 18.6659C24.2888 18.6659 25.3335 19.7106 25.3335 20.9993ZM9.00017 34.9993C10.2888 34.9993 11.3335 33.9546 11.3335 32.6659C11.3335 31.3773 10.2888 30.3326 9.00017 30.3326C7.7115 30.3326 6.66683 31.3773 6.66683 32.6659C6.66683 33.9546 7.7115 34.9993 9.00017 34.9993ZM25.3335 32.6659C25.3335 33.9546 24.2888 34.9993 23.0002 34.9993C21.7115 34.9993 20.6668 33.9546 20.6668 32.6659C20.6668 31.3773 21.7115 30.3326 23.0002 30.3326C24.2888 30.3326 25.3335 31.3773 25.3335 32.6659ZM17.1668 6.99927C17.1668 6.35494 16.6445 5.83261 16.0002 5.83261C15.3558 5.83261 14.8335 6.35494 14.8335 6.99927V34.9993C14.8335 35.6436 15.3558 36.1659 16.0002 36.1659C16.6445 36.1659 17.1668 35.6436 17.1668 34.9993V6.99927Z" fill="white"/>
</svg>
